<svg xmlns="http://www.w3.org/2000/svg" width="467" height="400"><g fill="none" fill-rule="evenodd"><path fill="#1A1919" d="M393.482 59.143C355.777 21.431 305.644.661 252.319.661c-53.323 0-103.455 20.77-141.16 58.482-37.706 37.713-58.472 87.854-58.472 141.187 0 53.334 20.766 103.475 58.472 141.187C148.864 379.231 198.996 400 252.319 400c53.325 0 103.458-20.77 141.163-58.483 37.706-37.712 58.472-87.853 58.472-141.187 0-53.333-20.766-103.474-58.472-141.187"/><path fill="#F3F0B4" d="M443.142 200.33c0 105.406-85.434 190.856-190.823 190.856-105.386 0-190.82-85.45-190.82-190.856C61.5 94.923 146.933 9.475 252.32 9.475c105.39 0 190.823 85.448 190.823 190.855"/><path fill="#D9242A" d="M252.32 84.69c-63.752 0-115.618 51.877-115.618 115.642 0 63.762 51.866 115.637 115.619 115.637 63.752 0 115.617-51.875 115.617-115.637 0-63.765-51.865-115.641-115.617-115.641"/><path fill="#1A1919" d="M252.32 315.97c-63.752 0-115.618-51.876-115.618-115.638 0-63.765 51.866-115.641 115.619-115.641 63.752 0 115.617 51.876 115.617 115.641 0 63.762-51.865 115.637-115.617 115.637zm0-235.347c-65.995 0-119.685 53.701-119.685 119.71 0 66.005 53.69 119.704 119.686 119.704 65.995 0 119.684-53.7 119.684-119.705 0-66.008-53.69-119.709-119.684-119.709z"/><path fill="#68B869" d="M174.637 232.374l11.213 19.35 42.76-11.468s10.507 13.22-3.22 41.695c0 0-10.05 15.876-11.859 20.395 0 0 50.159-13.107 89.812-88.362 0 0 154.661-61.695 161.44-147.119 0 0-101.677-23.05-201.998 82.712 0 0-62.361-11.3-123.367 40.226 0 0 53.324-10.395 63.717 11.752l-28.498 30.82"/><path stroke="#1A1919" stroke-width="3.388" d="M174.637 232.374l11.213 19.351 42.76-11.47s10.507 13.221-3.22 41.696c0 0-10.05 15.876-11.859 20.396 0 0 50.159-13.108 89.812-88.362 0 0 154.661-61.696 161.44-147.12 0 0-101.677-23.05-201.998 82.712 0 0-62.361-11.3-123.367 40.226 0 0 53.324-10.395 63.717 11.752l-28.498 30.82z"/><path fill="#000" d="M137.579 285.83c3.32-1.974 12.294-5.312 11.283-10.268-1.374-6.722-13.236 1.789-14.67 2.753-13.213 8.87-26.59 18.413-39.792 26.663l-9.174 6.847c-28.548 18.825-56.42 38.459-84.9 57.365-1.076 1.582.832-.032 1.38-.329 26.47-14.314 50.158-31.042 75.815-46.45 2.165-1.3 8.05-5.237 10.462-6.355l10.452-5.758c12.546-7.593 25.625-16.435 39.144-24.469m-3.129-22.348l6.092-3.54c4.59-3.4 19.193-8.505 13.93-16.37-3.154-4.341-12.517 5.588-18.909 8.232l-5.726 3.954c-16.97 12.789-35.115 24.251-52.38 36.71l-8.161 5.37c-5.207 4.265-12.735 8.124-16.81 12.278 5.928-3.587 11.803-7.232 18.25-10.23l8.113-4.59c18.117-11.076 36.874-21.429 55.602-31.814m-1.514-28.942l7.335-4.024c7.57-5.515 16.244-9.44 25.126-15.158 1.83-1.18 10.596-7.885 4.458-10.034-4.982-1.745-13.527 6.438-16.348 8.34-6.117 4.123-10.622 6.83-15.2 9.667l-7.593 4.878c-13.887 10.24-27.808 19.346-42.516 29.18-4.287 2.863-8.356 6.045-12.897 8.11v.001l-10.171 7.197c-16.353 11.015-32.534 22.229-49.198 32.884-.522.82-.507.841.383.441 16.572-10.462 33.543-20.462 50.282-30.73l8.692-5.584a2112.248 2112.248 0 0 0 57.647-35.168m-39.283-36l-.153 3.896-11.474-.446.176-4.529c.115-2.971.755-4.973 1.92-6.006 1.165-1.032 2.554-1.516 4.17-1.455 1.66.065 2.999.738 4.015 2.02 1.017 1.281 1.465 3.456 1.346 6.52zm29.36 5.045l-19.09-.743.339-8.705c.25-6.41-1.028-11.234-3.83-14.474-2.803-3.237-6.802-4.957-11.995-5.159-5.053-.197-9.004 1.086-11.853 3.845-2.849 2.76-4.385 7.017-4.609 12.774l-1.028 26.43 51.446 2.001.62-15.97zm19.95-72.368l-11.608-5.101-9.983 22.738-35.531-15.609-6.399 14.569 47.138 20.708 16.383-37.305m10.328-39.324l-8.11 7.879-8.862-17.198 16.972 9.32zm1.288 26.12l-4.121-7.846 12.957-12.585 7.768 4.303 11.951-11.609-49.747-23.46-12.448 12.093 21.988 50.424 11.652-11.32zm46.652-34.363l-9.458-26.644 27.627 20.19 14.131-5.019-17.228-48.524-14.131 5.019 9.531 26.846-27.799-20.358-13.999 4.971 17.227 48.526 14.099-5.007m86.078-20.427l-27.391-1.98.73-10.125 24.697 1.785.754-10.476-24.692-1.783.59-8.163 26.621 1.923.79-10.966-42.524-3.072-3.71 51.36 43.296 3.128.839-11.631m32.193 26.763l17.253-34.727 14.53 7.222 5.657-11.387-43.307-21.524-5.656 11.388 14.531 7.221-17.253 34.728 14.245 7.079m-38.72 246.25c2.928-.649 5.044-.539 6.35.331 1.307.872 2.136 2.1 2.49 3.69.362 1.639.051 3.117-.938 4.438-.988 1.319-2.99 2.313-6.01 2.986l-3.838.853-2.511-11.305 4.457-.993zm-96.888 33.662l5.605-10.337-24.342-13.203 4.88-8.998 21.944 11.905 5.047-9.31-21.944-11.903 3.934-7.254 23.655 12.834 4.322-7.97 12.031 25.341-21.42 24.37 17.75 2.437 12.425-15.13 7.887 17.921 17.856 2.452-13.874-28.931 18.991-22.2 10.932 49.183 15.727-3.497-4.18-18.807 8.573-1.905c6.312-1.403 10.688-3.888 13.123-7.455 2.437-3.563 3.087-7.905 1.948-13.02-1.106-4.98-3.372-8.503-6.792-10.573-3.422-2.068-7.97-2.473-13.637-1.212l-26.026 5.787.202.909-16.764-2.303-11.03 14.608-6.93-17.076-16.083-2.209.253-.466-37.786-20.498-24.748 45.638 38.47 20.872zm137.674-49.616l5.899-3.855c2.45-1.6 4.366-2.319 5.745-2.15 1.38.171 2.53.957 3.445 2.36.62.948.887 1.975.803 3.074-.087 1.099-.516 2.027-1.289 2.787-1.5 1.546-2.556 2.517-3.169 2.916l-5.661 3.702-5.773-8.834zm22.663 34.686l-11.523-17.64 1.183-.774c1.227-.801 2.542-1.18 3.95-1.143 1.047.05 2.587.636 4.619 1.76l15.853 8.593 15.174-9.918-14.731-8.344c-.73-.425-1.945-.917-3.645-1.471-1.701-.552-2.914-.849-3.64-.882-1.08-.055-2.595.173-4.543.683 1.701-1.76 2.898-3.36 3.592-4.803 1.09-2.26 1.576-4.604 1.463-7.025-.115-2.42-.961-4.839-2.539-7.247-1.807-2.769-4.011-4.677-6.613-5.725-2.605-1.05-5.234-1.211-7.894-.49-2.656.723-6.062 2.44-10.21 5.151l-22.379 14.629 28.396 43.46 13.487-8.814zm66.103-66.401l-9.458-6.986-16.449 22.277-8.231-6.081 14.829-20.082-8.515-6.292-14.832 20.085-6.636-4.903 15.987-21.652-8.915-6.585-25.537 34.586 41.754 30.843 26.003-35.21m-34.514-31.754c1.83 2.163 4.024 3.623 6.58 4.388 3.89 1.162 7.522.671 10.897-1.476 3.37-2.123 6.819-6.33 10.347-12.617 2.135-3.847 3.878-6.184 5.235-7.012 1.354-.827 2.678-1.048 3.967-.662 1.358.406 2.374 1.356 3.047 2.852.676 1.495.684 3.339.03 5.533-.878 2.94-2.561 4.903-5.046 5.884-1.536.602-3.537.706-6.007.312l-3.451 14.9c5.149 1.071 9.838.464 14.069-1.82 4.23-2.285 7.607-7.658 10.134-16.118 1.438-4.82 1.936-9.02 1.491-12.604-.445-3.582-1.75-6.658-3.915-9.227-2.164-2.567-4.841-4.329-8.03-5.281-2.715-.812-5.366-.883-7.956-.216-2.588.67-5.058 2.237-7.41 4.7-2.347 2.464-5.248 6.84-8.702 13.125-1.38 2.547-2.5 4.085-3.374 4.612-.856.558-1.68.717-2.472.48-1.086-.324-1.872-1.051-2.36-2.183-.487-1.132-.464-2.59.068-4.377.65-2.172 1.669-3.722 3.054-4.652 1.385-.928 3.254-1.25 5.61-.965l3.478-14.744c-5.346-.907-9.7-.046-13.058 2.585-3.36 2.631-5.99 7.125-7.89 13.482-1.547 5.18-2.114 9.452-1.7 12.815.411 3.364 1.534 6.126 3.364 8.286m6.12-52.445c1.519 3.03 3.505 5.255 5.954 6.674 2.449 1.42 5.008 2.06 7.67 1.918 4.056-.213 7.313-1.897 9.769-5.053 2.459-3.131 4.293-8.252 5.504-15.364.716-4.34 1.573-7.127 2.573-8.363.998-1.234 2.168-1.887 3.513-1.957 1.415-.076 2.69.478 3.83 1.66 1.136 1.182 1.765 2.915 1.884 5.203.164 3.064-.761 5.477-2.774 7.238-1.241 1.082-3.093 1.854-5.549 2.315l1.756 15.191c5.209-.722 9.423-2.871 12.639-6.445 3.214-3.574 4.59-9.77 4.126-18.59-.266-5.021-1.208-9.144-2.832-12.369-1.622-3.224-3.886-5.681-6.788-7.373-2.903-1.691-6.015-2.45-9.34-2.275-2.829.15-5.35.974-7.564 2.473-2.213 1.5-4.012 3.806-5.397 6.917-1.384 3.111-2.647 8.208-3.787 15.29-.44 2.86-.983 4.685-1.627 5.476-.618.813-1.34 1.241-2.167 1.285-1.13.058-2.115-.362-2.954-1.264-.84-.901-1.309-2.283-1.407-4.147-.118-2.263.319-4.064 1.31-5.406.994-1.34 2.647-2.272 4.96-2.796l-1.68-15.055c-5.34.944-9.149 3.22-11.43 6.826-2.28 3.608-3.246 8.725-2.896 15.35.284 5.4 1.185 9.614 2.704 12.641"/></g></svg>